<?xml version="1.0" encoding="UTF-8" standalone="no"?>
<!-- Created with Inkscape (http://www.inkscape.org/) -->

<svg
   version="1.1"
   id="svg1"
   width="640.87854"
   height="16.364777"
   viewBox="0 0 640.87854 16.364777"
   xmlns="http://www.w3.org/2000/svg"
   xmlns:svg="http://www.w3.org/2000/svg">
  <defs
     id="defs1" />
  <g
     id="g1"
     transform="translate(-93.380493,-184.64798)">
    <g
       id="g2">
      <path
         id="path604"
         d="m 203.08533,190.36004 c -1.48534,1.38666 -1.76934,1.68 -1.71734,2.57333 0.044,0.70667 0.19467,1.48 0.55467,2.06667 0.968,1.58666 2.96933,2 4.68267,1.10666 0.78,-0.4 1.364,-0.93333 1.44133,-1.89333 0.0893,-1.08 -0.37467,-1.85333 -1.308,-2.28 -1.21333,-0.58667 -2.47333,-1.06667 -3.65333,-1.57333 z m 0.912,9.75999 c -1.49334,0.08 -2.45067,-0.70666 -3.39334,-1.33333 -2.70399,-1.81333 -3.27733,-4.16 -2.17733,-7.21333 1.26,-3.49333 4.12667,-4.64 7.352,-5.32 0.44933,-0.0933 1.15733,0.10667 1.45733,0.44 1.05867,1.16 2.27467,2.32 2.92534,3.70667 2.264,4.82666 -1.01467,9.70666 -6.164,9.71999"
         style="fill:#000000;fill-opacity:1;fill-rule:evenodd;stroke:none;stroke-width:0.133333" />
      <path
         id="path605"
         d="m 616.47732,189.80004 c -1.00534,0.82666 -1.52267,1.73333 -1.72134,2.81333 -0.148,0.78667 0.116,1.48 0.78534,1.94667 1.86666,1.30666 4.96933,1.05333 6.50266,-0.49334 1.268,-1.29333 1.048,-3.18666 -0.52,-4.02666 -0.83466,-0.45334 -1.66666,-0.85334 -2.72666,-0.45334 -0.656,0.25334 -1.44267,0.14667 -2.32,0.21334 z m 0.996,8.65333 c -0.68,-0.16 -1.83467,-0.36 -2.93734,-0.72 -2.364,-0.78667 -3.59866,-3.24 -2.828,-5.61333 0.748,-2.30667 2.24934,-4.14667 4.20667,-5.42667 1.85467,-1.2 4.09733,-1.29333 6.116,-0.30667 3.68933,1.8 5.24,3.69334 2.76,8.13334 -1.46,2.61333 -3.81467,3.92 -7.31733,3.93333"
         style="fill:#000000;fill-opacity:1;fill-rule:evenodd;stroke:none;stroke-width:0.133333" />
      <path
         id="path606"
         d="m 345.56266,195.89337 c 0.7,-0.28 1.78533,-0.65333 2.81866,-1.13333 0.65467,-0.29334 0.81334,-0.96 0.62534,-1.61334 -0.17467,-0.6 -0.41334,-1.21333 -0.77334,-1.72 -1.18666,-1.66666 -4.06,-1.86666 -5.24133,-0.33333 -0.72267,0.94667 -0.96533,2.16 -0.47867,3.28 0.46134,1.05333 1.504,1.4 3.04934,1.52 z m -6.12934,-2.81333 c 0.005,-0.0533 0.0747,-0.78667 0.196,-1.50667 0.49467,-2.96 2.63334,-4.45333 5.06267,-5.65333 0.77733,-0.38667 1.67067,-0.34667 2.43867,0.12 0.80933,0.50666 1.67733,0.97333 2.32666,1.64 1.84534,1.90666 2.69067,4.26666 2.608,6.90666 -0.0293,0.96 -0.572,1.8 -1.38533,2.4 -1.85867,1.34667 -3.88933,2.12 -6.23067,1.78667 -0.52266,-0.0667 -1.036,-0.18667 -1.54933,-0.32 -2.93333,-0.73333 -3.57733,-1.6 -3.46667,-5.37333"
         style="fill:#000000;fill-opacity:1;fill-rule:evenodd;stroke:none;stroke-width:0.133333" />
      <path
         id="path607"
         d="m 134.04666,190.6267 c -0.51066,0.53334 -1.04933,0.92 -1.33733,1.45334 -0.81347,1.48 -0.44,3.69333 0.69867,4.66666 1.06,0.90667 2.61066,0.97334 4.12533,0.04 0.692,-0.42666 1.264,-1.05333 1.88933,-1.58666 -0.18266,-0.77334 -0.24266,-1.42667 -0.50266,-1.98667 -0.20667,-0.44 -0.59067,-0.92 -1.01467,-1.10667 -1.23067,-0.56 -2.52667,-0.98666 -3.85867,-1.48 z m -4.8592,3.44 c -0.0511,-2.56 2.3464,-5.62666 5.18854,-6.70666 0.736,-0.28 1.73866,-0.34667 2.46533,-0.0933 3.87867,1.41334 5.60533,4.13334 5.084,8.36 -0.072,0.57334 -0.43067,1.2 -0.82933,1.65334 -1.21334,1.37333 -2.70934,2.33333 -4.512,2.78666 -2.84,0.70667 -4.98347,-0.0667 -6.65334,-2.42666 -0.71186,-1.01334 -0.78333,-2.16 -0.7432,-3.57334"
         style="fill:#000000;fill-opacity:1;fill-rule:evenodd;stroke:none;stroke-width:0.133333" />
      <path
         id="path608"
         d="m 419.70532,193.04004 c -0.82266,-1.57334 -1.12266,-2.02667 -1.84533,-2.2 -0.588,-0.13334 -1.25067,-0.17334 -1.84267,-0.0667 -1.02266,0.18667 -2.01466,0.52 -2.924,0.77333 -0.36266,0.92 -0.92533,1.65334 -0.26666,2.52 0.57066,0.74667 1.38133,0.96 2.23333,1.04 0.412,0.0267 0.84133,-0.0667 1.25333,-0.12 1.30267,-0.2 2.40934,-0.76 3.392,-1.94666 z m -5.428,5.24 c -1.74666,-0.0933 -3.324,-1.24 -4.54133,-2.69334 -0.92133,-1.09333 -0.96267,-2.77333 -0.28267,-3.93333 1.088,-1.85333 1.93867,-4.09333 4.39467,-4.72 0.504,-0.13333 1.07867,-0.4 1.52533,-0.28 1.71867,0.50667 3.51734,0.92 5.07067,1.77333 2.68133,1.45334 3.232,5.10667 0.588,7.52 -1.64,1.48 -4.212,2.38667 -6.75467,2.33334"
         style="fill:#000000;fill-opacity:1;fill-rule:evenodd;stroke:none;stroke-width:0.133333" />
      <path
         id="path609"
         d="m 275.73333,195.33337 c 0.60933,-0.04 0.82133,-0.0533 1.03333,-0.0667 0.93867,-0.0933 1.44533,-1.13333 0.83333,-1.88 -0.66133,-0.81333 -1.376,-1.64 -2.232,-2.21333 -0.548,-0.37333 -1.396,-0.4 -2.10533,-0.4 -0.29067,0.0133 -0.73867,0.45333 -0.83467,0.77333 -0.296,1 0.003,1.96 0.84267,2.53334 0.848,0.58666 1.84133,0.94666 2.46267,1.25333 z m -0.49734,3.41333 c -2.27466,-0.6 -4.48533,-1.66666 -5.69733,-3.93333 -1.556,-2.92 0.74267,-7.06667 3.39467,-7.82667 1.01866,-0.29333 2.06266,-0.32 3.104,0.10667 2.768,1.14667 4.244,3.44 5.17866,6.06667 0.38267,1.08 0.0707,2.30666 -0.76533,3.26666 -1.33467,1.53334 -3.052,2.2 -5.21467,2.32"
         style="fill:#000000;fill-opacity:1;fill-rule:evenodd;stroke:none;stroke-width:0.133333" />
      <path
         id="path610"
         d="m 550.26665,189.04004 c -1.64133,-0.04 -2.72533,0.90666 -3.63333,2.09333 -0.42267,0.54667 -0.10667,1.58667 0.46667,1.93333 1.732,1.04 3.628,0.72 4.75733,-0.78666 0.45733,-0.61334 0.72267,-1.26667 0.43333,-2.04 -0.27866,-0.74667 -1.04533,-1.18667 -2.024,-1.2 z m 5.08534,1.88 c -0.028,2.50666 -1.5,4.06666 -3.82934,5.10666 -2.36133,1.06667 -4.57866,0.85334 -6.53866,-0.66666 -1.932,-1.50667 -2.65467,-4.37334 -0.68667,-6.74667 0.66667,-0.8 1.50933,-1.46667 2.336,-2.12 1.14267,-0.90667 2.416,-1.22667 3.85067,-0.69333 0.59466,0.21333 1.25333,0.24 1.84666,0.44 2.35467,0.81333 3.13867,2 3.02134,4.68"
         style="fill:#000000;fill-opacity:1;fill-rule:evenodd;stroke:none;stroke-width:0.133333" />
      <path
         id="path611"
         d="m 689.62665,191.80004 c -1.39333,0.10666 -2.75733,0.21333 -3.75867,1.33333 -0.43333,0.48 -0.83333,1.01333 -0.616,1.68 0.25067,0.76 0.90534,1.29333 1.66134,1.2 1.32266,-0.18667 2.64666,-0.52 3.912,-0.96 0.74666,-0.26667 0.996,-1.04 0.90133,-1.84 -0.088,-0.70667 -0.708,-1.26667 -1.504,-1.37333 -0.20667,-0.0267 -0.41733,-0.0267 -0.596,-0.04 z m -1.59733,-4.05334 c 1.05066,0.29334 2.17066,0.6 3.27066,0.94667 1.27067,0.4 2.176,1.22667 2.82534,2.38667 1.29733,2.34666 0.78666,4.66666 -1.51334,6.01333 -2.04533,1.18667 -4.34666,1.53333 -6.69333,1.57333 -0.20667,0 -0.416,-0.0533 -0.62133,-0.10666 -2.59334,-0.66667 -4.37067,-2.53334 -2.64134,-5.70667 1.33467,-2.45333 2.97334,-4.13333 5.37334,-5.10667"
         style="fill:#000000;fill-opacity:1;fill-rule:evenodd;stroke:none;stroke-width:0.133333" />
      <path
         id="path612"
         d="m 482.76932,188.9867 c -0.12133,0.04 -0.85067,0.21334 -1.472,0.56 -1.22533,0.70667 -1.48133,1.92 -0.81333,3.29334 0.47066,0.96 1.404,1.14666 2.73066,0.49333 0.55734,-0.26667 1.10934,-0.61333 1.584,-1.01333 0.66667,-0.57334 0.73467,-1.41334 0.312,-2.30667 -0.344,-0.73333 -0.872,-1.18667 -2.34133,-1.02667 z m 5.42933,-0.82666 c 0.444,1.92 0.15734,3.73333 -0.88,5.45333 -1.89466,3.14667 -4.88533,3.38667 -7.436,2.89333 -1.32533,-0.25333 -2.86666,-2.56 -2.856,-4.21333 0.009,-2.32 0.724,-4.32 2.684,-5.8 1.29067,-0.96 2.63334,-1.28 4.16667,-0.88 1.66267,0.42667 3.204,1.08 4.32133,2.54667"
         style="fill:#000000;fill-opacity:1;fill-rule:evenodd;stroke:none;stroke-width:0.133333" />
      <path
         id="path613"
         d="m 372.59332,192.17337 c -0.0333,1.69333 -0.0733,3.38667 -0.10266,5.06667 -0.0147,0.76 -0.43067,1.18666 -1.12534,1.28 -0.748,0.0933 -1.20533,-0.41334 -1.35866,-1.05334 -0.16667,-0.70666 -0.188,-1.45333 -0.21467,-2.18666 -0.084,-2.2 0.12,-4.42667 -0.56,-6.6 -0.17867,-0.57334 -0.13333,-1.25334 -0.0493,-1.88 0.13466,-1.01334 1.29733,-1.77334 2.376,-1.58667 0.69066,0.12 1.12,0.61333 1.21333,1.28 0.0747,0.52 0.0107,1.05333 -0.0293,1.57333 -0.10134,1.37334 -0.22,2.73334 -0.33334,4.10667 0.0627,0 0.124,0 0.184,0"
         style="fill:#000000;fill-opacity:1;fill-rule:evenodd;stroke:none;stroke-width:0.133333" />
      <path
         id="path614"
         d="m 664.30798,186.00004 c 1.33067,0.0667 2.27334,1.61333 1.84134,2.85333 -0.34534,1 -0.76134,1.96 -1.08534,2.97333 -0.39733,1.22667 -0.50133,2.49334 -0.16133,3.76 0.268,1 0.10933,1.93334 -0.50667,2.70667 -0.28666,0.37333 -0.81466,0.68 -1.27333,0.74667 -0.60267,0.10666 -0.952,-0.44 -1.052,-0.97334 -0.16667,-0.93333 -0.37067,-1.88 -0.32933,-2.82666 0.0933,-2.32 0.32533,-4.64 0.47333,-6.97334 0.0587,-0.93333 0.51733,-1.6 1.304,-2.04 0.25867,-0.14666 0.59467,-0.17333 0.78933,-0.22666"
         style="fill:#000000;fill-opacity:1;fill-rule:evenodd;stroke:none;stroke-width:0.133333" />
      <path
         id="path615"
         d="m 107.512,195.28004 c -0.0797,-1.36 -0.0459,-2.74667 -0.2672,-4.09334 -0.22547,-1.37333 0.10786,-2.52 0.83493,-3.61333 0.6052,-0.92 1.6328,-1.30667 2.45147,-0.96 0.7152,0.30667 1.13706,1.17333 0.99746,2.14667 -0.0599,0.41333 -0.13546,0.85333 -0.32453,1.22666 -1.2552,2.44 -1.32813,5.09334 -1.46293,7.73334 -0.0423,0.72 -0.2344,1.45333 -0.51054,2.12 -0.0823,0.18666 -0.8104,0.31999 -1.05613,0.17333 -0.6552,-0.38667 -1.03907,-1.05333 -1.00107,-1.86667 0.0359,-0.94666 0.11827,-1.90666 0.1792,-2.85333 0.0509,0 0.10467,0 0.15934,-0.0133"
         style="fill:#000000;fill-opacity:1;fill-rule:evenodd;stroke:none;stroke-width:0.133333" />
      <path
         id="path616"
         d="m 315.58399,194.5067 c -0.16133,-1.24 -0.38933,-3.01333 -0.61866,-4.77333 -0.17067,-1.32 0.696,-2.50667 2.016,-2.76 1.16533,-0.21333 2.29066,0.69333 1.94666,1.8 -1.05866,3.38667 -0.57333,6.93333 -1.28666,10.34667 -0.23734,1.13333 -0.64934,1.69333 -1.19867,1.53333 -0.75467,-0.21334 -0.91467,-0.88 -0.932,-1.48 -0.0427,-1.37333 0.032,-2.74667 0.0733,-4.66667"
         style="fill:#000000;fill-opacity:1;fill-rule:evenodd;stroke:none;stroke-width:0.133333" />
      <path
         id="path617"
         d="m 177.40666,186.56004 c 1.32134,-0.04 2.40134,1.12 1.96134,2.13333 -1.28534,2.94667 -0.91067,6.04 -0.996,9.09333 -0.02,0.84 -0.092,1.70667 -0.30667,2.52 -0.0773,0.28 -0.64667,0.61333 -0.98,0.6 -0.32533,0 -0.64933,-0.42667 -0.94933,-0.68 -0.0667,-0.0533 -0.0787,-0.2 -0.0813,-0.29333 -0.084,-3.70667 -0.59466,-7.38667 -0.20533,-11.09333 0.064,-0.6 0.38133,-1.22667 0.72,-1.73334 0.196,-0.32 0.668,-0.45333 0.83733,-0.54666"
         style="fill:#000000;fill-opacity:1;fill-rule:evenodd;stroke:none;stroke-width:0.133333" />
      <path
         id="path618"
         d="m 573.99199,186.3067 c 0.468,-0.29333 0.70933,-0.52 0.996,-0.61333 2.27466,-0.74667 3.22266,0.0533 3.024,2.34667 -0.20667,2.30666 -0.27867,4.64 -0.38267,6.96 -0.0307,0.53333 0.0413,1.05333 0.02,1.58666 -0.028,0.96 -0.528,1.49334 -1.28933,1.44 -0.736,-0.0533 -1.336,-0.62666 -1.40267,-1.46666 -0.088,-1.05334 -0.11467,-2.10667 -0.11067,-3.17334 0,-1.8 -0.04,-3.58666 -0.69466,-5.32 -0.18,-0.46666 -0.10134,-1.04 -0.16,-1.76"
         style="fill:#000000;fill-opacity:1;fill-rule:evenodd;stroke:none;stroke-width:0.133333" />
      <path
         id="path619"
         d="m 730.12798,192.52004 c 0.0227,-1.16 -0.0427,-2.34667 0.10667,-3.49334 0.0787,-0.69333 0.38267,-1.41333 0.768,-2.01333 0.51467,-0.78667 1.33067,-1.06667 1.896,-0.77333 0.78666,0.41333 1.37733,1.01333 1.36,1.98666 -0.004,0.32 -0.008,0.65334 -0.12667,0.93334 -0.92933,2.18666 -1.212,4.49333 -1.21466,6.85333 0,0.21333 -0.0107,0.42667 -0.048,0.64 -0.12134,0.8 -0.77734,1.49333 -1.40667,1.49333 -0.636,0.0133 -1.4,-0.69333 -1.41733,-1.48 -0.032,-1.37333 0.0427,-2.76 0.072,-4.14666 0.004,0 0.008,0 0.0107,0"
         style="fill:#000000;fill-opacity:1;fill-rule:evenodd;stroke:none;stroke-width:0.133333" />
      <path
         id="path620"
         d="m 584.62265,198.53337 c -0.156,-0.10667 -0.484,-0.22667 -0.636,-0.46667 -0.22133,-0.34666 -0.38,-0.76 -0.44266,-1.14666 -0.372,-2.62667 -0.208,-5.29334 -0.96,-7.88 -0.29467,-1.01334 0.33733,-1.82667 1.05866,-2.52 0.652,-0.62667 1.464,-0.8 2.01734,-0.45334 0.69866,0.44 1.22,1.44 0.90133,2.2 -1.08667,2.58667 -0.832,5.18667 -0.24933,7.8 0.0653,0.30667 0.18,0.61334 0.188,0.93334 0.0107,0.74666 -0.93734,1.57333 -1.87734,1.53333"
         style="fill:#000000;fill-opacity:1;fill-rule:evenodd;stroke:none;stroke-width:0.133333" />
      <path
         id="path621"
         d="m 249.23866,199.9067 c -0.39467,-0.2 -0.80133,-0.28 -0.9,-0.49333 -0.25733,-0.58667 -0.46,-1.2 -0.53867,-1.82667 -0.26533,-2.10666 -0.47466,-4.22666 -0.69066,-6.33333 -0.0733,-0.74667 -0.196,-1.49333 -0.12534,-2.21333 0.0587,-0.61334 0.29734,-1.24 0.60134,-1.78667 0.488,-0.86667 1.42266,-1.2 2.15733,-0.90667 0.776,0.30667 1.26533,1.16 0.904,2.13334 -0.648,1.76 -0.668,3.54666 -0.57867,5.36 0.0347,0.73333 0.22934,1.46666 0.312,2.2 0.164,1.44 -0.24666,2.69333 -1.14133,3.86666"
         style="fill:#000000;fill-opacity:1;fill-rule:evenodd;stroke:none;stroke-width:0.133333" />
      <path
         id="path622"
         d="m 306.71199,188.68004 c 0.504,-0.42667 1.012,-0.98667 1.62667,-1.37334 0.73067,-0.45333 1.50267,-0.14666 2.016,0.4 0.30533,0.33334 0.468,0.97334 0.4,1.41334 -0.136,0.93333 -0.56533,1.82666 -0.7,2.76 -0.22933,1.57333 -0.43733,3.16 0.11867,4.72 0.14,0.4 0.20933,0.82666 0.256,1.24 0.072,0.65333 -0.388,1.26666 -1.02134,1.41333 -0.72,0.14667 -1.384,-0.17333 -1.57333,-0.76 -0.344,-1.10667 -0.532,-2.26667 -0.652,-3.41333 -0.19867,-1.98667 -0.29867,-3.98667 -0.47067,-6.4"
         style="fill:#000000;fill-opacity:1;fill-rule:evenodd;stroke:none;stroke-width:0.133333" />
      <path
         id="path623"
         d="m 722.22532,192.7867 c 0.13066,-1.45333 0.21466,-2.93333 0.41066,-4.37333 0.14,-1.09333 0.94,-1.58667 1.93734,-1.81333 1.09866,-0.24 2.12533,0.69333 1.97066,1.82666 -0.0573,0.4 -0.232,0.8 -0.39066,1.18667 -0.79467,1.88 -1.08267,3.84 -0.98267,5.86667 0.024,0.52 0.0213,1.06666 -0.0973,1.54666 -0.156,0.65334 -1.13334,1.29334 -1.70534,1.18667 -0.716,-0.13333 -1.10933,-0.66667 -1.12266,-1.33333 -0.0387,-1.36 0.0307,-2.72 0.06,-4.08 -0.0253,0 -0.0507,-0.0133 -0.08,-0.0133"
         style="fill:#000000;fill-opacity:1;fill-rule:evenodd;stroke:none;stroke-width:0.133333" />
      <path
         id="path624"
         d="m 231.97733,191.97337 c -0.052,-1.05333 -0.0693,-2.10667 -0.16,-3.16 -0.0907,-1.06667 0.36533,-1.86667 1.16666,-2.48 0.532,-0.41333 1.204,-0.61333 1.75334,-0.14667 0.37066,0.30667 0.55866,0.84 0.776,1.30667 0.076,0.17333 0.0627,0.44 -0.0213,0.62667 -1.34666,2.81333 -0.876,5.82666 -0.91066,8.77333 -0.004,0.52 -0.0587,1.06667 -0.21734,1.56 -0.0773,0.24 -0.42533,0.49333 -0.68933,0.54667 -0.26667,0.0533 -0.688,-0.0667 -0.856,-0.25334 -0.796,-0.93333 -1.06,-2.08 -1.10533,-3.25333 -0.048,-1.17333 0.032,-2.34667 0.0547,-3.50667 0.0693,0 0.14,-0.0133 0.20934,-0.0133"
         style="fill:#000000;fill-opacity:1;fill-rule:evenodd;stroke:none;stroke-width:0.133333" />
      <path
         id="path625"
         d="m 645.05732,191.8667 c -0.0373,-1.22666 -0.0653,-2.4 -0.10934,-3.56 -0.036,-1.22666 0.64134,-1.96 1.696,-2.4 0.88934,-0.38666 2.03334,0.30667 2.10267,1.26667 0.0307,0.41333 0.0547,0.88 -0.0987,1.25333 -0.91066,2.22667 -0.81066,4.54667 -0.66533,6.88 0.0253,0.41334 0.0307,0.84 -0.0253,1.25334 -0.0907,0.68 -0.85334,1.18666 -1.67867,1.12 -0.68933,-0.0667 -1.28267,-0.38667 -1.29733,-1.12 -0.0333,-1.58667 0.0467,-3.17334 0.076,-4.69334"
         style="fill:#000000;fill-opacity:1;fill-rule:evenodd;stroke:none;stroke-width:0.133333" />
      <path
         id="path626"
         d="m 713.28532,194.1867 c 0.0293,-1.28 0.0613,-2.54666 0.0787,-3.82666 0.0187,-1.12 0.356,-2.12 1.264,-2.78667 0.372,-0.28 0.99334,-0.42667 1.44267,-0.34667 0.64267,0.13334 1.11867,0.62667 1.13067,1.36 0.004,0.41334 0,0.86667 -0.13734,1.25334 -0.65333,1.84 -0.73733,3.73333 -0.85333,5.65333 -0.0653,1.02667 -0.44133,2.05333 -0.82,3.02667 -0.24267,0.62666 -0.86133,0.93333 -1.57733,0.74666 -0.636,-0.17333 -0.712,-0.74666 -0.67334,-1.28 0.0973,-1.26666 0.25334,-2.53333 0.38134,-3.8 -0.0773,0 -0.15734,0 -0.236,0"
         style="fill:#000000;fill-opacity:1;fill-rule:evenodd;stroke:none;stroke-width:0.133333" />
      <path
         id="path627"
         d="m 506.71465,188.96004 c 0.11467,1.50666 -0.22666,3.06666 0.48134,4.62666 0.48266,1.06667 -0.43334,2.30667 -1.69467,2.56 -0.304,0.0533 -0.84667,-0.24 -1.01333,-0.53333 -0.25334,-0.44 -0.30667,-1 -0.37867,-1.52 -0.30133,-2.2 -0.57333,-4.4 -0.868,-6.6 -0.16933,-1.24 0.452,-2 1.43867,-2.58667 1.07066,-0.62666 2.25733,-0.0667 2.296,1.16 0.0227,0.52 -0.10134,1.04 -0.15067,1.56 -0.0413,0.42667 -0.0693,0.85334 -0.11067,1.33334"
         style="fill:#000000;fill-opacity:1;fill-rule:evenodd;stroke:none;stroke-width:0.133333" />
      <path
         id="path628"
         d="m 377.40399,194.97337 c -0.108,-1.69333 -0.22267,-3.38667 -0.316,-5.08 -0.104,-1.90667 0.64133,-3.01333 2.21733,-3.33333 1.01067,-0.21334 1.94134,0.64 1.77067,1.66666 -0.0707,0.41334 -0.304,0.78667 -0.42267,1.18667 -0.676,2.26667 -0.81066,4.6 -0.75333,6.94667 0.0173,0.62666 0.048,1.26666 -0.0267,1.89333 -0.0813,0.66667 -0.8,1.26667 -1.31866,1.14667 -0.664,-0.14667 -1.23067,-0.54667 -1.276,-1.24 -0.0667,-1.05334 0.0213,-2.12 0.0453,-3.18667 0.0267,0 0.052,0 0.08,0"
         style="fill:#000000;fill-opacity:1;fill-rule:evenodd;stroke:none;stroke-width:0.133333" />
      <path
         id="path629"
         d="m 656.69198,196.9467 c -0.59733,1.06667 -1.20133,1.42667 -2.00266,1.44 -0.97867,0.0267 -1.62934,-0.54666 -1.71867,-1.48 -0.0253,-0.2 -0.0187,-0.41333 -0.003,-0.62666 0.128,-2.52 0.248,-5.04 0.41067,-7.56 0.084,-1.24 1.07867,-2.05334 2.35067,-2.04 0.648,0 1.41066,0.72 1.38,1.48 -0.0347,0.70666 -0.26534,1.41333 -0.45334,2.12 -0.60133,2.22666 -1.372,4.46666 0.036,6.66666"
         style="fill:#000000;fill-opacity:1;fill-rule:evenodd;stroke:none;stroke-width:0.133333" />
      <path
         id="path630"
         d="m 518.15199,187.84004 c -0.14134,-1.22667 0.85333,-2.45334 2.14933,-2.57334 0.42267,-0.0533 1.00133,0.28 1.324,0.61334 0.63867,0.65333 0.664,1.50666 0.37733,2.36 -0.7,2.05333 -0.63333,4.16 -0.308,6.25333 0.13867,0.88 0.14667,1.70667 -0.468,2.36 -0.20533,0.22667 -0.78133,0.32 -1.08533,0.2 -0.884,-0.33333 -1.05733,-1.24 -1.332,-2.02667 -0.0627,-0.2 -0.0827,-0.41333 -0.10133,-0.61333 -0.18667,-2.18667 -0.372,-4.37333 -0.556,-6.57333"
         style="fill:#000000;fill-opacity:1;fill-rule:evenodd;stroke:none;stroke-width:0.133333" />
      <path
         id="path631"
         d="m 169.62533,188.6267 c 0.33467,0.44 0.784,0.88 1.01467,1.41334 0.15066,0.34666 0.0293,0.84 -0.072,1.24 -0.644,2.58666 -0.98934,5.16 -0.188,7.8 0.23733,0.77333 -0.17734,1.43999 -0.896,1.79999 -0.71734,0.34667 -1.56934,-0.0133 -1.78534,-0.76 -0.0853,-0.30666 -0.164,-0.61333 -0.19333,-0.91999 -0.216,-2.52 -0.42933,-5.05334 -0.62933,-7.57334 -0.1,-1.30666 0.464,-2.24 1.66266,-2.76 0.28134,-0.12 0.604,-0.14666 1.08667,-0.24"
         style="fill:#000000;fill-opacity:1;fill-rule:evenodd;stroke:none;stroke-width:0.133333" />
      <path
         id="path632"
         d="m 96.848931,196.76004 c -0.102533,0.34666 -0.247333,0.96 -0.478133,1.53333 -0.190134,0.48 -0.441067,0.94667 -0.7396,1.36 -0.308267,0.44 -0.7588,0.84 -1.321334,0.54666 -0.328133,-0.17333 -0.656266,-0.57333 -0.751466,-0.93333 -0.158934,-0.6 -0.193867,-1.25333 -0.172,-1.88 0.100533,-2.84 0.212533,-5.69333 0.382933,-8.52 0.03533,-0.6 0.262933,-1.24 0.5536,-1.77333 0.170267,-0.30667 0.6364,-0.66667 0.957333,-0.65333 0.626,0.0133 0.789067,0.62666 0.79,1.16 0.0095,2 -0.100533,4.01333 -0.014,6.01333 0.03387,0.89333 0.428134,1.76 0.792667,3.14667"
         style="fill:#000000;fill-opacity:1;fill-rule:evenodd;stroke:none;stroke-width:0.133333" />
      <path
         id="path633"
         d="m 303.38533,192.80004 c -0.0213,0.98666 -0.0173,2.04 -0.0707,3.10666 -0.0507,0.94667 -0.10533,1.90667 -0.29733,2.82667 -0.06,0.28 -0.56667,0.56 -0.91334,0.64 -0.18533,0.04 -0.572,-0.28 -0.688,-0.52 -0.17333,-0.37333 -0.25733,-0.81333 -0.26,-1.22667 -0.028,-2.97333 -0.31466,-5.90666 -0.85866,-8.82666 -0.26267,-1.4 0.26266,-2.22667 1.288,-2.58667 1.21466,-0.42667 2.224,0.18667 2.18133,1.44 -0.0533,1.69333 -0.24133,3.38667 -0.38133,5.14667"
         style="fill:#000000;fill-opacity:1;fill-rule:evenodd;stroke:none;stroke-width:0.133333" />
      <path
         id="path634"
         d="m 99.855731,198.05337 c -0.7812,-1.02667 -0.790667,-2.02667 -0.561467,-2.92 0.467734,-1.8 0.374,-3.56 0.104134,-5.34667 -0.170267,-1.12 0.0052,-2.16 0.851602,-2.90666 0.32293,-0.29334 0.96613,-0.4 1.41146,-0.30667 0.28907,0.0533 0.66507,0.57333 0.6912,0.92 0.0771,0.94667 -0.0125,1.89333 -0.0313,2.85333 -0.0401,1.78667 -0.25,3.57334 0.5224,5.30667 0.41147,0.93333 0.008,1.58667 -1.01827,2 -0.6432,0.25333 -1.36813,0.29333 -1.969729,0.4"
         style="fill:#000000;fill-opacity:1;fill-rule:evenodd;stroke:none;stroke-width:0.133333" />
      <path
         id="path635"
         d="m 446.93332,189.21337 c -0.0693,-0.52 0.12,-1.66667 0.98134,-2.56 0.33066,-0.33333 0.97733,-0.73333 1.32133,-0.62667 0.52267,0.17334 0.992,0.70667 1.30933,1.2 0.19734,0.30667 0.17067,0.84 0.076,1.22667 -0.6,2.50667 -0.60666,5.01333 -0.12666,7.53333 0.0547,0.29334 -0.004,0.62667 -0.0907,0.93334 -0.212,0.69333 -0.78933,0.94666 -1.45067,1 -0.648,0.0667 -1.21066,-0.42667 -1.28266,-1.12 -0.236,-2.29334 -0.44934,-4.6 -0.73734,-7.58667"
         style="fill:#000000;fill-opacity:1;fill-rule:evenodd;stroke:none;stroke-width:0.133333" />
      <path
         id="path636"
         d="m 385.72666,194.85337 c -0.188,-1.66667 -0.41467,-3.34667 -0.55867,-5.02667 -0.14533,-1.69333 0.79467,-2.77333 2.30533,-2.77333 0.948,0 1.632,0.72 1.54,1.62667 -0.0107,0.0933 -0.016,0.21333 -0.0547,0.30666 -1.04267,2.53334 -0.99067,5.16 -0.75334,7.84 0.072,0.8 0.0827,1.73334 -0.61333,2.38667 -0.21867,0.2 -0.576,0.45333 -0.8,0.38667 -0.35867,-0.08 -0.90133,-0.36 -0.94533,-0.64 -0.22667,-1.33334 -0.31867,-2.70667 -0.45467,-4.06667 0.112,-0.0133 0.224,-0.0267 0.33467,-0.04"
         style="fill:#000000;fill-opacity:1;fill-rule:evenodd;stroke:none;stroke-width:0.133333" />
      <path
         id="path637"
         d="m 161.376,200.6267 c -0.11867,-1.12 -0.308,-2.04 -0.296,-2.96 0.0387,-3.08 0.14,-6.14666 0.22933,-9.21333 0.0493,-1.48 0.672,-2.2 2.00267,-2.4 0.836,-0.13333 1.70666,0.69333 1.60666,1.53333 -0.024,0.21334 -0.0493,0.42667 -0.13733,0.61334 -1.55333,3.38666 -1.628,6.94666 -1.29067,10.57333 0.116,1.21333 -0.49866,1.73333 -2.11466,1.85333"
         style="fill:#000000;fill-opacity:1;fill-rule:evenodd;stroke:none;stroke-width:0.133333" />
      <path
         id="path638"
         d="m 242.10666,191.17337 c 0.0587,0.96 0.16667,2.33333 0.20267,3.70667 0.0227,0.73333 -0.0333,1.46666 -0.144,2.18666 -0.0893,0.56 -0.48534,1.04 -1.08134,0.92 -0.45333,-0.0933 -1.08,-0.4 -1.22133,-0.77333 -0.332,-0.86667 -0.476,-1.82667 -0.584,-2.76 -0.164,-1.36 -0.16933,-2.74667 -0.36267,-4.09333 -0.144,-1 -0.0187,-1.89334 0.496,-2.74667 0.428,-0.70667 1.08134,-0.98667 1.888,-0.76 0.756,0.2 1.156,0.77333 1.09867,1.68 -0.0453,0.74667 -0.15867,1.48 -0.292,2.64"
         style="fill:#000000;fill-opacity:1;fill-rule:evenodd;stroke:none;stroke-width:0.133333" />
      <path
         id="path639"
         d="m 443.31732,187.77337 c -0.62266,2.64 -0.42933,5.38667 -0.348,8.14667 0.0107,0.50666 -0.0227,1.09333 -0.23866,1.53333 -0.14934,0.30667 -0.64667,0.61333 -0.992,0.61333 -0.34667,0.0133 -0.87867,-0.28 -1.004,-0.58666 -0.23734,-0.56 -0.35734,-1.22667 -0.32267,-1.84 0.11867,-2.24 -0.068,-4.41334 -0.784,-6.54667 -0.33333,-1 0.044,-1.89333 0.66133,-2.65333 0.51334,-0.62667 1.24,-0.76 2.01734,-0.50667 0.70933,0.22667 1.072,0.86667 1.01066,1.84"
         style="fill:#000000;fill-opacity:1;fill-rule:evenodd;stroke:none;stroke-width:0.133333" />
      <path
         id="path640"
         d="m 591.17199,193.56004 c -0.0747,-1.14667 -0.12,-2.32 -0.23467,-3.46667 -0.096,-0.98667 0,-1.90667 0.58267,-2.73333 0.44133,-0.62667 1.00533,-1.05334 1.82266,-1.12 1.07467,-0.08 1.86134,0.68 1.75067,1.73333 -0.0107,0.10667 -0.004,0.22667 -0.044,0.32 -1.11733,2.46667 -1.44267,5.06667 -1.29467,7.74667 0.04,0.68 -0.604,1.2 -1.22266,1.21333 -0.784,0.0267 -1.63067,-0.50667 -1.67334,-1.16 -0.0547,-0.84 0.016,-1.68 0.0347,-2.53333 0.0947,0 0.18533,0 0.27867,0"
         style="fill:#000000;fill-opacity:1;fill-rule:evenodd;stroke:none;stroke-width:0.133333" />
      <path
         id="path641"
         d="m 457.79732,188.45337 c -0.516,2.2 -0.69333,4.37333 -0.328,6.58667 0.0813,0.49333 0.032,1.08 -0.15466,1.54666 -0.124,0.30667 -0.56,0.58667 -0.912,0.70667 -0.23334,0.0667 -0.71467,-0.08 -0.83334,-0.26667 -0.35866,-0.61333 -0.72933,-1.28 -0.86533,-1.96 -0.296,-1.54666 -0.52,-3.10666 -0.65067,-4.66666 -0.068,-0.81334 0.008,-1.69334 0.23334,-2.46667 0.28,-1 1.496,-1.49333 2.59866,-1.21333 0.67334,0.16 1.00267,0.81333 0.912,1.73333"
         style="fill:#000000;fill-opacity:1;fill-rule:evenodd;stroke:none;stroke-width:0.133333" />
      <path
         id="path642"
         d="m 515.10932,186.5467 c -0.30667,1.26667 -0.64267,2.6 -0.936,3.93334 -0.19867,0.93333 -0.228,1.85333 0.17067,2.8 0.55733,1.32 0.37866,1.64 -0.74134,2.2 -1.056,0.53333 -1.936,0.13333 -2.08666,-1.02667 -0.11334,-0.84 -0.15467,-1.69333 -0.17067,-2.54667 -0.0253,-1.37333 0,-2.74666 -0.0147,-4.13333 -0.0107,-1.22667 0.36934,-1.93333 1.33734,-2.26667 1.06133,-0.37333 1.85733,0 2.44133,1.04"
         style="fill:#000000;fill-opacity:1;fill-rule:evenodd;stroke:none;stroke-width:0.133333" />
      <path
         id="path643"
         d="m 120.57973,196.13337 c -1.27507,-0.0667 -2.54333,-1.45333 -2.5172,-2.74667 0.0287,-1.30666 1.9296,-2.98666 3.2656,-2.86666 1.0052,0.0933 2.5052,1.57333 2.52453,2.50666 0.0249,1.69334 -1.5532,3.2 -3.27293,3.10667"
         style="fill:#000000;fill-opacity:1;fill-rule:evenodd;stroke:none;stroke-width:0.133333" />
      <path
         id="path644"
         d="m 602.70132,191.49337 c 1.404,0.0533 2.13466,0.86667 2.00133,2.21333 -0.23867,2.42667 -2.48533,3.62667 -4.57867,2.37334 -0.38266,-0.22667 -0.72666,-0.81334 -0.76266,-1.25334 -0.164,-1.76 1.55066,-3.41333 3.34,-3.33333"
         style="fill:#000000;fill-opacity:1;fill-rule:evenodd;stroke:none;stroke-width:0.133333" />
      <path
         id="path645"
         d="m 671.82398,193.48004 c -0.004,-2.12 1.09334,-3.16 3.10267,-2.96 0.808,0.08 1.396,0.46666 1.7,1.2 0.344,0.82666 0.264,1.65333 -0.35333,2.34666 -0.648,0.73334 -1.484,1.14667 -2.468,1.25334 -1.22267,0.12 -1.97734,-0.58667 -1.98134,-1.84"
         style="fill:#000000;fill-opacity:1;fill-rule:evenodd;stroke:none;stroke-width:0.133333" />
      <path
         id="path646"
         d="m 532.07599,190.68004 c 0.49866,-0.24 0.86133,-0.44 1.248,-0.57334 1.48533,-0.50666 2.69333,0 3.204,1.48 0.14133,0.41334 0.0427,1.17334 -0.24534,1.42667 -0.76266,0.66667 -1.64,1.25333 -2.572,1.64 -1.00933,0.41333 -2.16666,-0.48 -2.13333,-1.61333 0.0173,-0.8 0.32533,-1.6 0.49867,-2.36"
         style="fill:#000000;fill-opacity:1;fill-rule:evenodd;stroke:none;stroke-width:0.133333" />
      <path
         id="path647"
         d="m 493.25865,194.13337 c -0.17466,-0.08 -0.496,-0.17333 -0.69866,-0.38667 -0.908,-0.90666 -0.88934,-2.25333 0,-3.41333 0.76,-0.97333 2.00133,-1.28 3.076,-0.76 1.08266,0.53333 1.392,1.98667 0.616,2.90667 -0.93467,1.10666 -1.94134,1.69333 -2.99334,1.65333"
         style="fill:#000000;fill-opacity:1;fill-rule:evenodd;stroke:none;stroke-width:0.133333" />
      <path
         id="path648"
         d="m 149.79466,196.40004 c -1.11333,-0.0133 -2.3,-1.10667 -2.34266,-2.14667 -0.056,-1.38667 1.168,-2.58667 2.62933,-2.57333 1.156,0 2.16133,0.90666 2.104,1.88 -0.092,1.58666 -1.16933,2.86666 -2.39067,2.84"
         style="fill:#000000;fill-opacity:1;fill-rule:evenodd;stroke:none;stroke-width:0.133333" />
      <path
         id="path649"
         d="m 432.72399,191.8267 c -0.0973,0.18667 -0.2,0.64 -0.484,0.89334 -0.54533,0.49333 -1.14933,0.94666 -1.804,1.26666 -0.428,0.21334 -1.056,0.34667 -1.47467,0.18667 -0.728,-0.28 -1.176,-1 -1.07333,-1.78667 0.15067,-1.17333 0.62,-2.21333 1.86267,-2.72 1.25466,-0.50666 2.91333,0.56 2.97333,2.16"
         style="fill:#000000;fill-opacity:1;fill-rule:evenodd;stroke:none;stroke-width:0.133333" />
      <path
         id="path650"
         d="m 632.91332,190.1067 c 0.97866,0.70667 1.804,1.29334 2.608,1.86667 -0.008,1.77333 -1.18,2.54667 -2.28267,3.24 -0.89867,0.57333 -2.24667,-0.66667 -2.204,-1.92 0.04,-0.92 0.316,-1.42667 1.87867,-3.18667"
         style="fill:#000000;fill-opacity:1;fill-rule:evenodd;stroke:none;stroke-width:0.133333" />
      <path
         id="path651"
         d="m 566.31065,189.1067 c 0.0173,0.88 0.156,1.61334 0.0227,2.28 -0.264,1.32 -1.12267,1.94667 -2.43867,1.98667 -1.376,0.0533 -2.13733,-0.98667 -1.67066,-2.28 0.604,-1.66667 1.28933,-2.04 4.08666,-1.98667"
         style="fill:#000000;fill-opacity:1;fill-rule:evenodd;stroke:none;stroke-width:0.133333" />
      <path
         id="path652"
         d="m 361.18932,191.5467 c 0,1.24 -0.44666,2.24 -1.59333,2.84 -0.80933,0.42667 -1.71733,0.30667 -2.29067,-0.33333 -0.564,-0.61333 -0.57333,-1.30667 -0.23466,-2.02667 0.47866,-1.01333 1.28133,-1.64 2.38,-1.85333 0.82666,-0.16 1.72666,0.56 1.73866,1.37333"
         style="fill:#000000;fill-opacity:1;fill-rule:evenodd;stroke:none;stroke-width:0.133333" />
      <path
         id="path653"
         d="m 185.91466,196.33337 c -0.664,-2.97333 -0.34666,-3.74667 1.51867,-4.34667 0.97067,-0.32 1.97867,0.36 1.988,1.36 0.012,1.10667 -0.52,2.06667 -1.316,2.69334 -0.46,0.36 -1.328,0.2 -2.19067,0.29333"
         style="fill:#000000;fill-opacity:1;fill-rule:evenodd;stroke:none;stroke-width:0.133333" />
      <path
         id="path654"
         d="m 706.10532,192.5867 c -0.12267,0.50667 -0.0973,0.92 -0.292,1.09334 -0.70534,0.62666 -1.428,1.25333 -2.24534,1.70666 -0.77066,0.42667 -2.048,-0.50666 -2.088,-1.4 -0.0627,-1.76 1.852,-3.26666 3.47334,-2.61333 0.49866,0.2 0.81333,0.84 1.152,1.21333"
         style="fill:#000000;fill-opacity:1;fill-rule:evenodd;stroke:none;stroke-width:0.133333" />
      <path
         id="path655"
         d="m 469.19999,190.65337 c -0.18934,0.76 -0.29334,1.48 -0.56134,2.14667 -0.38666,0.94666 -1,1.22666 -2.00133,1.12 -0.808,-0.0933 -1.40133,-0.46667 -1.65466,-1.25334 -0.26667,-0.82666 0.0453,-1.69333 0.78533,-2.22666 1.028,-0.74667 2.07733,-1.01334 3.432,0.21333"
         style="fill:#000000;fill-opacity:1;fill-rule:evenodd;stroke:none;stroke-width:0.133333" />
      <path
         id="path656"
         d="m 400.83332,191.7867 c -0.516,0.81334 -0.98666,1.74667 -1.648,2.52 -0.52533,0.61334 -1.96666,0.13334 -2.43466,-0.69333 -0.49867,-0.89333 -0.22267,-2.2 0.608,-2.86667 0.86133,-0.69333 2.116,-0.69333 2.88933,0.0533 0.21067,0.2 0.31467,0.52 0.58533,0.98666"
         style="fill:#000000;fill-opacity:1;fill-rule:evenodd;stroke:none;stroke-width:0.133333" />
      <path
         id="path657"
         d="m 290.56933,190.2267 c 0.92666,1.57334 0.648,2.64 -0.10267,3.65334 -0.48,0.64 -1.25067,0.86666 -1.98,0.57333 -0.83867,-0.32 -1.33467,-1.18667 -1.02667,-2.05333 0.20267,-0.57334 0.53467,-1.21334 1.00934,-1.53334 0.556,-0.37333 1.32933,-0.42666 2.1,-0.64"
         style="fill:#000000;fill-opacity:1;fill-rule:evenodd;stroke:none;stroke-width:0.133333" />
      <path
         id="path658"
         d="m 221.25066,192.80004 c -0.19333,0.76 -0.26667,1.29333 -0.46533,1.77333 -0.32667,0.76 -1.348,1.16 -2.16134,0.89333 -0.724,-0.24 -1.16133,-0.90666 -1.124,-1.73333 0.0307,-0.76 0.216,-1.48 0.82,-2 0.62534,-0.54667 1.40934,-0.68 2.05734,-0.24 0.43866,0.29333 0.64,0.93333 0.87333,1.30667"
         style="fill:#000000;fill-opacity:1;fill-rule:evenodd;stroke:none;stroke-width:0.133333" />
      <path
         id="path659"
         d="m 326.18799,193.61337 c 0.11334,-1.53333 0.59467,-2.21333 1.54667,-2.49333 0.744,-0.21334 1.75333,0.0267 1.924,0.64 0.15467,0.56 0.0933,1.22666 -0.0507,1.8 -0.092,0.36 -0.484,0.66666 -0.792,0.96 -0.70933,0.66666 -1.53333,0.89333 -1.956,0.41333 -0.38266,-0.42667 -0.54,-1.05333 -0.672,-1.32"
         style="fill:#000000;fill-opacity:1;fill-rule:evenodd;stroke:none;stroke-width:0.133333" />
      <path
         id="path660"
         d="m 261.61333,192.5467 c -0.0453,1.14667 -0.43867,1.86667 -1.13734,2.38667 -0.55866,0.42667 -1.20133,0.38667 -1.74666,-0.0267 -0.46134,-0.36 -0.54534,-0.85333 -0.36534,-1.41333 0.376,-1.17333 1.084,-1.78667 2.29334,-1.69333 0.37466,0.0267 0.71466,0.54666 0.956,0.74666"
         style="fill:#000000;fill-opacity:1;fill-rule:evenodd;stroke:none;stroke-width:0.133333" />
    </g>
  </g>
</svg>
