<?xml version="1.0" encoding="UTF-8" standalone="no"?>
<!DOCTYPE svg PUBLIC "-//W3C//DTD SVG 1.1//EN" "http://www.w3.org/Graphics/SVG/1.1/DTD/svg11.dtd">
<!-- Created with Vectornator (http://vectornator.io/) -->
<svg height="100%" stroke-miterlimit="10" style="fill-rule:nonzero;clip-rule:evenodd;stroke-linecap:round;stroke-linejoin:round;" version="1.1" viewBox="53.2854 215.783 917.871 592.434" width="100%" xml:space="preserve" xmlns="http://www.w3.org/2000/svg" xmlns:vectornator="http://vectornator.io" xmlns:xlink="http://www.w3.org/1999/xlink">
<defs/>
<g id="Layer">
<g opacity="1">
<path d="M616.085 538.738C643.966 534.066 673.926 531.604 705.111 531.769C750.475 532.01 793.161 542.788 830.574 558.269C875.947 577.043 913.564 602.733 938.799 624.932C960.93 644.401 961.272 642.275 961.142 666.117C961.017 689.233 961.455 688.374 940.361 707.201C894.433 748.192 785.846 797.235 683.994 796.694M382.873 684.472C374.072 681.116 354.076 675.869 334.58 667.459C312.724 658.03 291.268 645.148 282.374 636.847C254.216 610.567 232.765 579.995 216.704 548.869C191.103 499.251 179.197 448.223 175.651 410.916C172.878 381.734 171.163 383.058 187.683 365.709C203.698 348.888 202.786 349.221 231.182 349.697C270.941 350.363 335.328 364.145 389.485 389.535M556.751 444.729C629.789 376.55 732.119 352.769 793.673 350.64C823.26 349.617 822.026 347.845 838.546 365.193C854.563 382.012 854.281 381.092 852.13 409.129C849.197 447.349 836.552 499.661 809.316 550.415M393.943 608.342C382.144 569.98 375.582 527.318 375.582 479.988C375.582 448.233 380.909 417.776 389.485 389.535C407.751 329.388 440.755 279.293 468.425 248.125C487.97 226.11 485.821 225.784 509.903 225.784C533.252 225.784 532.382 225.355 551.51 246.138C580.409 277.537 613.842 329.401 631.604 391.901M351.524 797.505C251.143 797.955 132.505 747.16 86.0599 707.11C63.7353 687.859 63.4152 689.989 63.3061 666.146C63.2003 643.03 62.7716 643.893 83.6764 624.861C111.023 599.964 162.976 567.862 214.901 549.11" fill="#ba5a31" fill-opacity="0" fill-rule="nonzero" opacity="1" stroke="#ecebe4" stroke-linecap="round" stroke-linejoin="round" stroke-width="20"/>
<path d="M441.146 591.277L430.326 674.347L474.404 686.926M670.685 700.196C675.595 700.106 685.816 700.698 695.304 704.37C701.424 706.738 707.961 710.801 712.075 715.019C718.123 721.221 722.082 728.467 723.423 732.355C724.623 735.831 726.914 743.35 726.331 752.881C725.749 762.412 720.675 775.524 707.14 786.69C701.099 791.673 694.776 796.026 682.272 796.777C659.135 798.168 624.491 797.903 624.491 797.903C624.491 797.903 630.636 797.196 496.196 797.903C361.756 798.61 368.685 797.903 368.685 797.903C368.685 797.903 353.616 798.642 337.471 795.555C330.169 794.159 324.365 791.957 317.917 788.574C314.117 786.579 309.001 780.133 306.18 776.138C300.85 768.587 297.587 761.315 297.587 749.638C297.587 739.76 300.018 733.321 303.466 727.251C306.251 722.348 309.285 717.596 315.469 712.164C320.054 708.136 325.008 705.918 329.103 704.19C337.698 700.565 345.049 700.596 354.312 700.596M509.647 735.533L451.327 722.166C451.327 722.166 435.091 719.261 427.572 717.02C420.544 714.925 414.327 714.152 409.82 712.705C396.021 708.271 392.108 702.264 392.108 702.264C392.108 702.264 385.31 695.898 383.491 681.183C382.345 671.91 383.571 662.283 388.475 639.529C394.923 609.61 397.366 578.34 400.94 563.444C406.975 538.296 417.072 535.49 427.195 531.619C437.091 527.835 453.292 523.49 467.991 520.257C473.347 519.079 480.493 515.353 487.547 506.661C494.601 497.969 493.936 491.182 496.207 485.489M532.734 483.386C534 485.978 535.593 498.665 543.12 508.199C550.646 517.734 562.894 521.673 562.894 521.673C599.831 527.657 615.279 538.763 615.279 538.763C615.279 538.763 621.756 545.45 625.535 556.883C632.292 577.328 630.615 584.982 638.579 625.747C650.123 684.84 644.594 686.138 644.594 686.138C644.594 686.138 639.305 699.479 630.319 707.209C621.333 714.939 512.006 735.834 512.006 735.834M464.384 424.952C464.384 392.127 485.53 365.518 511.614 365.518C532.629 365.518 550.438 382.79 556.567 406.669C558.045 412.428 558.843 418.573 558.843 424.952C558.843 457.776 537.698 484.386 511.614 484.386C485.53 484.386 464.384 457.776 464.384 424.952ZM597.376 531.985C597.376 531.985 599.798 566.011 590.274 594.806C580.749 623.602 561.723 650.57 561.723 650.57M562.46 523.967C562.46 523.967 555.464 553.295 535.27 576.635C515.076 599.975 474.404 624.246 474.404 624.246M564.476 650.57M589.194 599.31L595.817 674.352L506.677 693.277C506.677 693.277 500.397 695.132 496.564 699.525C493.053 703.549 492.004 709.921 491.163 714.334C489.404 723.566 502.406 733.555 502.406 733.555" fill="none" opacity="1" stroke="#ecebe4" stroke-linecap="round" stroke-linejoin="round" stroke-width="20"/>
</g>
</g>
</svg>
